<svg width="800" height="800" viewBox="0 0 800 800" fill="none" xmlns="http://www.w3.org/2000/svg">
<path d="M398.236 767.833C582.331 767.833 731.57 618.595 731.57 434.5C731.57 250.405 582.331 101.167 398.236 101.167C214.141 101.167 64.903 250.405 64.903 434.5C64.903 618.595 214.141 767.833 398.236 767.833ZM398.236 701.167V434.5V167.833C545.512 167.833 664.903 287.224 664.903 434.5C664.903 581.776 545.512 701.167 398.236 701.167Z" fill="white"/>
<path d="M664.903 434.5C664.903 287.224 545.512 167.833 398.236 167.833V434.5V701.167C545.512 701.167 664.903 581.776 664.903 434.5Z" fill="#292929"/>
</svg>
